<svg width="219" height="66" viewBox="0 0 219 66" fill="none" xmlns="http://www.w3.org/2000/svg">
<path d="M171.096 1.4272L187.75 46.654H201.971L219 1.4272H204.03L198.136 22.4221C197.107 26.3067 196.359 29.7288 195.61 33.429H195.329C194.581 29.8218 193.831 26.3075 192.709 22.4221L186.534 1.4272H171.096ZM120.496 14.9303C120.496 8.17837 120.682 4.38598 120.869 1.4272H108.52L108.052 6.88452H107.865C105.526 3.09213 101.596 0.41071 95.3278 0.41071C84.0065 0.41071 74.556 9.65891 74.556 24.2722C74.556 37.2214 82.6028 46.2844 93.9241 46.2844C99.1634 46.2844 103.561 44.1577 106.274 40.4575H106.462V43.3249C106.462 51.757 101.316 55.2713 94.5793 55.2713C89.1526 55.2713 84.1946 53.5141 81.2939 51.8492L78.4873 62.5779C82.6036 64.7976 88.872 66 94.9539 66C101.69 66 108.521 64.7054 113.479 60.4505C118.719 55.9189 120.497 48.7975 120.497 40.088V14.9311L120.496 14.9303ZM106.274 26.4911C106.274 27.6935 106.18 29.1733 105.806 30.2828C104.87 33.5197 101.97 35.9245 98.2269 35.9245C92.3331 35.9245 88.9645 30.6531 88.9645 23.9011C88.9645 15.6694 93.0808 11.045 98.3201 11.045C102.25 11.045 104.963 13.5427 105.992 17.2414C106.178 18.0925 106.272 18.9607 106.273 19.8314L106.274 26.4911ZM149.424 0C134.641 0 124.91 9.34116 124.91 24.0467C124.91 38.66 135.202 47.3687 148.582 47.3687C160.839 47.3687 172.721 39.7695 172.721 23.2138C172.721 9.52556 163.365 0 149.424 0ZM148.956 10.081C155.412 10.081 158.032 16.9252 158.032 23.5842C158.032 31.8151 154.57 37.2724 148.956 37.2724C142.875 37.2724 139.6 31.4456 139.6 23.6764C139.6 17.0174 142.22 10.081 148.956 10.081Z" fill="#F3603F"/>
<path d="M58.1124 24.169L58.2549 24.171L58.3272 24.1719L58.3975 24.1729L58.4698 24.1758L58.5401 24.1788L58.6124 24.1807L58.6827 24.1827L58.8253 24.1905L58.8946 24.1944L58.9659 24.1993L59.0372 24.2032L59.1075 24.2081L59.1778 24.2139L59.3184 24.2276L59.3887 24.2335L59.46 24.2393L59.5294 24.2481L59.5987 24.2559L59.67 24.2637L59.8087 24.2794L59.879 24.2901L59.9483 24.2989L60.1563 24.3282L60.2256 24.3399L60.296 24.3516L60.3643 24.3633L60.4327 24.3741L60.502 24.3858L60.5714 24.3985L60.6397 24.4112L60.709 24.4258L60.7774 24.4385L60.8458 24.4522L60.9151 24.4669L61.0518 24.4962L61.1212 24.5108L61.1895 24.5264L61.2589 24.543L61.4639 24.5928L61.5333 24.6104L61.6006 24.629L61.669 24.6475L61.7383 24.6651L61.8057 24.6837L61.8731 24.7032L61.9424 24.7227L62.0098 24.7422L62.0782 24.7618L62.1456 24.7823L62.2803 24.8253L62.3487 24.8477L62.4151 24.8692L62.4825 24.8907L62.5499 24.9141L62.6163 24.9376L62.6837 24.96L62.752 24.9844L62.8184 25.0079L62.8848 25.0333L62.9522 25.0587L63.0186 25.084L63.085 25.1085L63.2178 25.1612L63.2842 25.1885L63.4171 25.2413L63.4835 25.2696L63.5499 25.2989L63.6827 25.3555L63.8155 25.4141L63.8809 25.4454L64.0137 25.5059L64.0792 25.5372L64.1456 25.5694L64.211 25.6016L64.2774 25.6348L64.3428 25.6671L64.4737 25.7335L64.5391 25.7676L64.6036 25.8018L64.5928 25.8028C68.9342 28.1177 71.8841 32.6558 71.8848 37.8731C71.8847 44.3012 67.4086 49.6917 61.3702 51.1749C60.3579 45.2298 64.3447 39.939 69.045 41.0098C69.043 40.9968 68.5631 37.9383 65.1856 36.876C62.248 35.9519 60.9693 37.388 60.6837 37.7823C61.0234 37.2636 62.566 34.703 61.834 31.9669C61.0162 28.9037 58.1905 27.5323 58.1905 27.5323L58.2237 27.5518C58.2159 27.5555 55.3776 28.8859 54.5147 31.9327C53.7405 34.6666 55.2616 37.258 55.586 37.7676C55.3143 37.3781 54.0598 35.9068 51.0919 36.793C47.6917 37.8095 47.1749 40.8731 47.1749 40.8731C51.4073 40.2836 55.34 45.337 54.6036 51.1631L54.5655 51.1544L54.4971 51.1358L54.4278 51.1172L54.3604 51.0997L54.2921 51.0821L54.2237 51.0635L54.1563 51.043L54.087 51.0235L54.0206 51.003L53.9522 50.9844L53.8839 50.9639L53.8165 50.9415L53.7501 50.92L53.6817 50.8985L53.6153 50.876L53.5479 50.8536L53.4796 50.8301L53.4141 50.8077L53.3458 50.7842L53.2784 50.7598L53.212 50.7364L53.1456 50.711L53.0782 50.6856L53.0118 50.6612L52.9454 50.6358L52.8126 50.5831L52.7462 50.5557L52.6133 50.503L52.5469 50.4737L52.4805 50.4454L52.4151 50.4171L52.3487 50.3887L52.2159 50.3282L52.1505 50.2989L52.084 50.2676L52.0186 50.2374L51.9532 50.2051L51.8868 50.1729L51.8214 50.1407L51.7549 50.1085L51.6241 50.0421L51.5587 50.0079L51.4922 49.9727L51.4278 49.9395L51.3633 49.9034L51.2979 49.8682L51.2325 49.8321L51.169 49.796L51.1036 49.7598L51.0391 49.7227L50.9747 49.6846L50.9092 49.6465L50.8448 49.6085L50.7813 49.5704L50.7169 49.5294L50.6534 49.4903L50.5889 49.4503L50.5255 49.4102L50.461 49.3692L50.3975 49.3272L50.3331 49.2852L50.2696 49.2432L50.2051 49.1993L50.1417 49.1553L50.0772 49.1133L50.0147 49.0694L49.9503 49.0245L49.8868 48.9786L49.8243 48.9337L49.6973 48.8419L49.6348 48.794L49.5714 48.7452L49.5089 48.6983L49.4454 48.6495L49.3829 48.5997L49.3204 48.5508L49.2579 48.501L49.1954 48.4503L49.0723 48.3467L49.0098 48.295L48.9483 48.2422L48.8878 48.1885L48.8253 48.1348L48.7637 48.0801L48.7012 48.0255L48.5801 47.9141L48.5186 47.8575L48.4571 47.8018L48.3965 47.7432L48.335 47.6846L48.2745 47.6251L48.2139 47.5665L48.0928 47.4454L48.0323 47.3839L47.9717 47.3214L47.9112 47.2579L47.8516 47.1954L47.7921 47.1309L47.7325 47.0674L47.6729 47.001L47.6143 46.9356L47.5547 46.8692L47.4962 46.8008L47.4366 46.7315L47.3194 46.5948L47.2608 46.5225L47.2032 46.4503L47.1446 46.3799L47.087 46.3057L47.0284 46.2315L46.9708 46.1563L46.9131 46.0821L46.8565 46.0049L46.7979 45.9268L46.7413 45.8497L46.6846 45.7706L46.628 45.6905L46.5714 45.6075L46.5147 45.5274L46.4581 45.4434L46.4024 45.3585L46.3467 45.2745L46.2911 45.1876L46.2354 45.0997L46.1797 45.0108L46.1251 44.921L46.0704 44.8301L46.0157 44.7383L45.961 44.6446L45.9073 44.5489L45.7999 44.3555L45.7462 44.2549L45.6934 44.1544L45.6397 44.0528L45.5342 43.8438L45.4825 43.7364L45.4307 43.627L45.3799 43.5186L45.3292 43.4044L45.2784 43.2881L45.2276 43.1729L45.1778 43.0518L45.128 42.9317L45.0792 42.8077L45.0303 42.6807L44.9825 42.5528L44.9346 42.42L44.8878 42.2872L44.8409 42.1475L44.796 42.0069L44.7501 41.8624L44.7051 41.713L44.6612 41.5626L44.6182 41.4053L44.5753 41.2452L44.5342 41.0792L44.4942 40.9083L44.4551 40.7305L44.4171 40.5469L44.3799 40.3555L44.3458 40.1553L44.3116 39.9493L44.2803 39.7276L44.251 39.4971L44.2237 39.2549L44.2003 38.9903L44.1807 38.7061L44.1651 38.3956L44.1563 38.0489L44.1544 37.876L44.1573 37.6534C44.1799 36.1681 44.4472 34.6964 44.9483 33.296L45.086 32.9278L45.2159 32.6094L45.338 32.3282L45.4561 32.0733L45.5714 31.837L45.6817 31.6172L45.7901 31.4151L45.8975 31.2217L46.002 31.0381L46.1046 30.8672L46.2071 30.7003L46.3077 30.5401L46.4063 30.3897L46.5049 30.2413L46.6006 30.1026L46.6973 29.9649L46.7921 29.835L46.8868 29.7071L46.9805 29.585L47.0743 29.4639L47.1671 29.3487L47.2589 29.2354L47.3506 29.1251L47.4415 29.0186L47.5313 28.9131L47.6212 28.8126L47.711 28.713L47.8008 28.6163L47.9766 28.4288L48.0645 28.3399L48.1524 28.2501L48.2393 28.1641L48.4131 27.9962L48.5001 27.9141L48.586 27.836L48.6719 27.7569L48.7569 27.6817L48.8419 27.6075L48.9278 27.5323L49.0118 27.461L49.0958 27.3907L49.1807 27.3194L49.2647 27.252L49.3477 27.1856L49.4317 27.1192L49.5147 27.0547L49.5977 26.9913L49.6807 26.9288L49.7628 26.8672L49.8448 26.8077L49.9268 26.7491L50.0089 26.6895L50.0909 26.6348L50.1719 26.5792L50.254 26.5235L50.335 26.4698L50.4171 26.4161L50.4971 26.3643L50.5782 26.3116L50.6592 26.2618L50.7393 26.212L50.8995 26.1143L50.9796 26.0684L51.0587 26.0206L51.1387 25.9747L51.2969 25.8868L51.376 25.8438L51.4561 25.8008L51.5342 25.7598L51.6133 25.7188L51.6924 25.6768L51.7706 25.6387L51.8497 25.5997L51.9278 25.5616L52.0059 25.5225L52.085 25.4864L52.1622 25.4503L52.3184 25.378L52.3965 25.3448L52.4737 25.3106L52.628 25.2442L52.9366 25.1192L53.0128 25.0899L53.0899 25.0606L53.1661 25.0323L53.2422 25.003L53.3194 24.9766L53.3956 24.9493L53.4727 24.9229L53.5489 24.8965L53.6251 24.8721L53.7003 24.8477L53.8526 24.7989L53.9288 24.7755L54.004 24.754L54.0801 24.7315L54.1553 24.71L54.2305 24.6876L54.3067 24.668L54.3809 24.6475L54.4561 24.627L54.6065 24.588L54.6797 24.5704L54.7559 24.5528L54.8301 24.5342L54.9044 24.5167L54.9796 24.501L55.0528 24.4844L55.128 24.4688L55.2032 24.4522L55.2764 24.4376L55.3506 24.4239L55.4258 24.4102L55.4991 24.3956L55.5733 24.3819L55.7217 24.3585L55.795 24.3458L55.8692 24.335L55.9424 24.3233L56.0167 24.3126L56.0909 24.3028L56.1631 24.2921L56.2364 24.2823L56.3106 24.2725L56.3829 24.2647L56.4551 24.2559L56.5294 24.2481L56.6016 24.2393L56.6739 24.2335L56.7471 24.2266L56.8194 24.2208L56.8926 24.2139L56.9649 24.2071L57.0362 24.2032L57.1094 24.1983L57.1817 24.1934L57.253 24.1895L57.3253 24.1846L57.3975 24.1827L57.4688 24.1788L57.5411 24.1768L57.6124 24.1749L57.6837 24.1719L57.7559 24.171L57.8272 24.169H57.8995L57.9698 24.168L58.0274 24.1671H58.0421L58.1124 24.169ZM60.6202 37.878C60.6215 37.8757 60.6417 37.8401 60.6837 37.7823C60.644 37.8428 60.6216 37.876 60.6202 37.878Z" fill="#A6A346"/>
<path d="M35.9279 34.8189C32.2788 36.576 28.0685 37.6862 23.1097 37.6862C19.18 37.6862 16.092 36.4838 14.3152 34.1712C13.3794 32.8766 12.9115 30.8413 12.8182 29.5475C31.2497 30.01 42.571 25.848 42.571 14.3786C42.571 5.96176 35.9279 0.782562 26.6655 0.782562C10.1049 0.782562 0 15.1185 0 28.8998C0 40.7379 6.73634 48.0606 19.7411 48.0606C24.8872 48.0606 31.5303 47.1356 36.8629 44.4381L35.9271 34.8196L35.9279 34.8189ZM29.9401 14.2857C29.9401 18.5398 24.7007 19.9274 14.1271 19.8352C15.0629 15.6733 18.7121 10.494 24.9805 10.494C28.0685 10.494 29.9393 12.066 29.9393 14.2857H29.9401Z" fill="#1E3A8A"/>
</svg>
